<?xml version="1.0" encoding="UTF-8"?>
<svg id="Layer_1" data-name="Layer 1" xmlns="http://www.w3.org/2000/svg" viewBox="0 0 1080 1080">
  <defs>
    <style>
      .cls-1 {
        fill: #13b5ea;
      }
    </style>
  </defs>
  <g id="c">
    <g>
      <path class="cls-1" d="M722.43,418.67c-22.51,0-46.51,17.48-58.78,55.53v-32.66c0-12.61-10.26-22.87-22.87-22.87s-22.87,10.26-22.87,22.87v196.93c0,12.61,10.26,22.87,22.87,22.87s22.87-10.26,22.87-22.87v-92.5c0-44.49,25.12-70.88,63.7-79.52,12.33-2.76,19.99-12.07,19.99-24.29,0-13.83-10.24-23.49-24.91-23.49h0Z"/>
      <path class="cls-1" d="M867.73,418.67c-66.9,0-121.33,54.43-121.33,121.33s54.43,121.33,121.33,121.33,121.33-54.43,121.33-121.33-54.43-121.33-121.33-121.33ZM867.73,615.62c-41.69,0-75.62-33.92-75.62-75.62s33.92-75.62,75.62-75.62,75.62,33.92,75.62,75.62-33.92,75.62-75.62,75.62Z"/>
      <path class="cls-1" d="M867.73,509.78c-16.66,0-30.22,13.56-30.22,30.22s13.56,30.22,30.22,30.22,30.22-13.56,30.22-30.22-13.56-30.22-30.22-30.22Z"/>
      <path class="cls-1" d="M461.5,418.67c-66.93,0-121.38,54.43-121.38,121.33s52.84,121.33,125.93,121.33c35.68,0,65.13-10.85,90.03-33.16,2.69-2.69,7.28-8.52,7.28-16.86,0-12.61-9.38-22.12-21.83-22.12-6.42,0-10.04,1.84-14.13,5.02-17.99,14.81-37.75,22.02-60.39,22.02-38.62,0-70.18-22.72-78.82-56.97h167.7c15.46-.06,26.67-12.53,26.67-29.69,0-41.5-40.69-110.92-121.06-110.92h0ZM388.12,520.66c8.12-33.49,37.09-57.39,73.38-57.39s64.99,21.36,73.31,57.39h-146.68Z"/>
      <path class="cls-1" d="M333.6,441.25c0-12.5-10.13-22.59-22.59-22.59-6.03,0-11.7,2.35-15.97,6.62l-82.78,82.77-82.78-82.77c-4.27-4.27-9.94-6.62-15.97-6.62-12.45,0-22.59,10.09-22.59,22.59,0,6.03,2.35,11.7,6.61,15.97l82.78,82.77-82.78,82.77c-4.27,4.27-6.61,9.94-6.61,15.97,0,12.49,10.1,22.59,22.59,22.59,6.03,0,11.7-2.35,15.97-6.62l82.78-82.77,82.78,82.77c4.27,4.27,9.94,6.62,15.97,6.62,12.48,0,22.59-10.09,22.59-22.59,0-6.03-2.35-11.7-6.61-15.97l-82.78-82.77,82.78-82.77c4.27-4.27,6.61-9.94,6.61-15.97h0Z"/>
    </g>
  </g>
</svg>